# xmcd CD database file
#
# Track frame offsets:
#	150
#	11464
#	24719
#	38793
#	51588
#	65756
#	77991
#	91934
#	102855
#	112838
#	125339
#	139130
#	149052
#	161235
#	173147
#	185284
#	199619
#	212358
#	224831
#	237082
#	249679
#	263783
#	272527
#	286743
#	300471
#
# Disc length: 4201 seconds
#
# Revision: 0
# Processed by: cddbd v1.5.1PL2 Copyright (c) Steve Scherf et al.
# Submitted via: CDex 1.50
#
DISCID=6f106719
DTITLE=Various Artist - 100 Rhythm and Blues Classics disc 3
DYEAR=1900
DGENRE=Blues
TTITLE0=The Midnighters - Sexy Ways
TTITLE1=Nellie Lutcher - Fine Brown Frame
TTITLE2=Charles Brown - Black Night
TTITLE3=Amos Milburn - Chicken Shack Boogie
TTITLE4=The Clovers - Ting-a-ling
TTITLE5=Ruth Brown - Mambo Baby
TTITLE6=Jimmy Reed - You Don't Have To
TTITLE7=Clyde McPhatter and The Drifters - Honey Love
TTITLE8=Fats Domino - Goin' Home
TTITLE9=Louis Jordan - Boogie Woogie Blue Plate
TTITLE10=The Orioles - Crying in the Chapel
TTITLE11=The Five Keys - Ling Ting Tong
TTITLE12=Earl Bostic - Flamingo
TTITLE13=Johnny Ace - Saving My Love for You
TTITLE14=Wynonie Harris - Good Morning Judge
TTITLE15=Lowell Fulson - Reconsider Baby
TTITLE16=Faye Adams - I'll be True
TTITLE17=The "5" Royales - Baby, Don't Do It
TTITLE18=The Spaniels - Goodnight, Sweetheart, Goodnight
TTITLE19=Julia Lee and Her Boyfriends - Gotta Gimme What'cha Got
TTITLE20=Little Walter - Blues with a Feeling
TTITLE21=Billy Ward and the Dominoes - I'd Be Satisfied
TTITLE22=Willie Mabon - I dont Know
TTITLE23=The Robins - Riot in Cell Block No. 9
TTITLE24=Roy Hamilton - You'll Never Walk Alone
EXTD=
EXTT0=
EXTT1=
EXTT2=
EXTT3=
EXTT4=
EXTT5=
EXTT6=
EXTT7=
EXTT8=
EXTT9=
EXTT10=
EXTT11=
EXTT12=
EXTT13=
EXTT14=
EXTT15=
EXTT16=
EXTT17=
EXTT18=
EXTT19=
EXTT20=
EXTT21=
EXTT22=
EXTT23=
EXTT24=
PLAYORDER=
